<svg width="33" height="44" viewBox="0 0 23 34" fill="none" xmlns="http://www.w3.org/2000/svg">
<path d="M12.222 33.2466C11.8283 33.6574 11.1717 33.6574 10.778 33.2466L1.62141 23.6919C1.01206 23.0561 1.46271 22 2.3434 22H20.6566C21.5373 22 21.9879 23.0561 21.3786 23.6919L12.222 33.2466Z" fill="#1B76F9"/>
<path d="M18.7592 2.38422H17.3292C16.8136 2.38422 16.3958 2.80211 16.3958 3.31761V8.51551C16.3958 9.03101 16.8136 9.4489 17.3292 9.4489H18.7592C19.2747 9.4489 19.6926 9.03101 19.6926 8.51551V3.31761C19.6926 2.80211 19.2747 2.38422 18.7592 2.38422Z" fill="#1B76F9"/>
<path d="M21.1114 9.09072L12.3881 0.366535C12.1522 0.131785 11.8329 0 11.5001 0C11.1673 0 10.848 0.131785 10.6121 0.366535L1.88883 9.09072C1.35651 9.68276 1.04285 10.4391 1 11.2342V12.7709C5.76581 16.3166 11.5499 18.2272 17.49 18.2176C19.0007 18.2179 20.5089 18.0951 21.9997 17.8505V11.2342C21.9564 10.4394 21.6431 9.68316 21.1114 9.09072Z" fill="#1B76F9"/>
<path d="M17.4904 19.6306C11.5503 19.64 5.7662 17.7294 1.00036 14.1838V22.4848C1.00144 22.8176 1.1341 23.1364 1.36938 23.3716C1.60466 23.607 1.92346 23.7396 2.25619 23.7407H20.7444C21.0771 23.7396 21.3958 23.6068 21.6312 23.3716C21.8664 23.1363 21.999 22.8175 22.0001 22.4848V19.2634C20.5093 19.508 19.0011 19.6308 17.4904 19.6306Z" fill="#1B76F9"/>
</svg>
