<svg width="44" height="48" viewBox="0 0 44 48" fill="none" xmlns="http://www.w3.org/2000/svg">
<path d="M36.6769 4.81738H33.7856C32.7432 4.81738 31.8984 5.66177 31.8984 6.70338V17.2062C31.8984 18.2478 32.7432 19.0922 33.7856 19.0922H36.6769C37.7192 19.0922 38.564 18.2478 38.564 17.2062V6.70338C38.564 5.66177 37.7192 4.81738 36.6769 4.81738Z" fill="white"/>
<path d="M41.4328 18.3686L23.7955 0.740616C23.3185 0.266282 22.673 0 22.0001 0C21.3272 0 20.6816 0.266282 20.2046 0.740616L2.56758 18.3686C1.49132 19.5648 0.857149 21.0932 0.770508 22.6996V25.8046C10.4063 32.9691 22.1009 36.8295 34.1109 36.8103C37.1652 36.8108 40.2147 36.5627 43.2288 36.0684V22.6996C43.1412 21.0936 42.5077 19.5657 41.4328 18.3686Z" fill="white"/>
<path d="M34.1119 39.6653C22.1019 39.6843 10.4073 35.8239 0.771484 28.6597V45.4326C0.773664 46.1051 1.04188 46.7491 1.51758 47.2244C1.99328 47.7 2.63784 47.9679 3.31059 47.9701H40.6909C41.3635 47.9679 42.008 47.6997 42.4839 47.2244C42.9595 46.7489 43.2276 46.1048 43.2298 45.4326V38.9235C40.2156 39.4177 37.1662 39.6659 34.1119 39.6653Z" fill="white"/>
</svg>
