<svg width="21" height="24" viewBox="0 0 21 24" fill="none" xmlns="http://www.w3.org/2000/svg">
<path d="M17.7594 2.38428H16.3294C15.8138 2.38428 15.396 2.80217 15.396 3.31767V8.51557C15.396 9.03107 15.8138 9.44897 16.3294 9.44897H17.7594C18.2749 9.44897 18.6928 9.03107 18.6928 8.51557V3.31767C18.6928 2.80217 18.2749 2.38428 17.7594 2.38428Z" fill="#1B76F9"/>
<path d="M20.1114 9.09072L11.3881 0.366535C11.1522 0.131785 10.8329 0 10.5001 0C10.1673 0 9.84798 0.131785 9.61206 0.366535L0.888827 9.09072C0.356509 9.68276 0.0428526 10.4391 0 11.2342V12.7709C4.76581 16.3166 10.5499 18.2272 16.49 18.2176C18.0007 18.2179 19.5089 18.0951 20.9997 17.8505V11.2342C20.9564 10.4394 20.6431 9.68316 20.1114 9.09072Z" fill="#1B76F9"/>
<path d="M16.4905 19.6306C10.5504 19.64 4.76633 17.7295 0.000488281 14.1838V22.4849C0.00156627 22.8177 0.134225 23.1364 0.369506 23.3717C0.604787 23.607 0.923584 23.7396 1.25632 23.7407H19.7445C20.0772 23.7396 20.3959 23.6069 20.6313 23.3717C20.8665 23.1363 20.9991 22.8175 21.0002 22.4849V19.2635C19.5094 19.5081 18.0012 19.6309 16.4905 19.6306Z" fill="#1B76F9"/>
</svg>
