<svg width="69" height="44" viewBox="0 0 69 44" fill="none" xmlns="http://www.w3.org/2000/svg">
<path fill-rule="evenodd" clip-rule="evenodd" d="M24.4846 27.3486H21.4026L19.0914 18.3773C18.9817 17.9646 18.7488 17.5997 18.4062 17.4278C17.5511 16.9957 16.6089 16.6518 15.5811 16.4783V16.1329H20.546C21.2313 16.1329 21.7452 16.6518 21.8308 17.2543L23.03 23.7257L26.1106 16.1329H29.107L24.4846 27.3486ZM30.8196 27.3486H27.9088L30.3056 16.1329H33.2164L30.8196 27.3486ZM36.9835 19.2383C37.0691 18.6342 37.5831 18.2888 38.1826 18.2888C39.1248 18.2021 40.1512 18.3756 41.0077 18.8062L41.5217 16.3914C40.6651 16.046 39.7229 15.8726 38.8679 15.8726C36.0428 15.8726 33.9871 17.4261 33.9871 19.5822C33.9871 21.2225 35.4432 22.0837 36.471 22.6026C37.5831 23.1199 38.0113 23.4653 37.9257 23.9827C37.9257 24.7587 37.0691 25.1041 36.2141 25.1041C35.1862 25.1041 34.1584 24.8454 33.2177 24.4133L32.7037 26.8296C33.7316 27.2602 34.8436 27.4336 35.8715 27.4336C39.0392 27.5189 41.0077 25.9668 41.0077 23.6373C41.0077 20.7036 36.9835 20.5317 36.9835 19.2383ZM51.1928 27.3486L48.8816 16.1329H46.3992C45.8852 16.1329 45.3713 16.4783 45.2 16.9957L40.9203 27.3486H43.9167L44.5148 25.7098H48.1964L48.539 27.3486H51.1928ZM46.8278 19.1521L47.6829 23.3791H45.286L46.8278 19.1521Z" fill="#172B85"/>
</svg>
