<svg width="69" height="44" viewBox="0 0 69 44" fill="none" xmlns="http://www.w3.org/2000/svg">
<path fill-rule="evenodd" clip-rule="evenodd" d="M32.8593 26.9672V21.8022H35.4969C36.5777 21.8022 37.4899 21.4361 38.2335 20.7143L38.412 20.5312C39.7704 19.0366 39.6812 16.7083 38.2335 15.3255C37.5097 14.5935 36.5182 14.197 35.4969 14.2173H31.263V26.9672H32.8593ZM32.8596 20.2363V15.783H35.5372C36.1124 15.783 36.6578 16.0066 37.0644 16.4133C37.9272 17.2674 37.947 18.6908 37.114 19.5754C36.7074 20.0126 36.1322 20.2566 35.5372 20.2363H32.8596Z" fill="#3C4043"/>
<path fill-rule="evenodd" clip-rule="evenodd" d="M45.8586 18.9247C45.1744 18.2842 44.2424 17.9588 43.0624 17.9588C41.5453 17.9588 40.4051 18.5282 39.6515 19.6568L41.0595 20.5617C41.5751 19.7889 42.2791 19.4026 43.1715 19.4026C43.7367 19.4026 44.282 19.6161 44.7084 20.0025C45.1248 20.3685 45.3628 20.8972 45.3628 21.4564V21.8326C44.748 21.4869 43.9746 21.3039 43.0228 21.3039C41.9122 21.3039 41.0198 21.5682 40.3555 22.1071C39.6912 22.646 39.354 23.3577 39.354 24.2626C39.3342 25.0861 39.6812 25.869 40.296 26.3977C40.9207 26.9671 41.7139 27.2518 42.646 27.2518C43.7466 27.2518 44.6191 26.7536 45.2835 25.7572H45.3529V26.9671H46.8799V21.5886C46.8799 20.46 46.5427 19.5653 45.8586 18.9247ZM41.5258 25.3607C41.1985 25.1167 41.0002 24.7202 41.0002 24.2931C41.0002 23.8153 41.2184 23.4187 41.6448 23.1035C42.0812 22.7884 42.6266 22.6257 43.2712 22.6257C44.1637 22.6155 44.8579 22.8189 45.3538 23.2256C45.3538 23.9169 45.086 24.5168 44.5604 25.0252C44.0844 25.5132 43.4398 25.7877 42.7654 25.7877C42.3192 25.7979 41.8828 25.6454 41.5258 25.3607Z" fill="#3C4043"/>
<path d="M50.3107 30.8002L55.6452 18.2435H53.91L51.441 24.5066H51.4113L48.8828 18.2435H47.1476L50.6478 26.4079L48.6647 30.8002H50.3107Z" fill="#3C4043"/>
<path d="M27.348 20.6838C27.348 20.1856 27.3084 19.6874 27.229 19.1994H20.4964V22.0157H24.3535C24.1949 22.9206 23.6793 23.734 22.9257 24.2424V26.0725H25.2261C26.5746 24.8016 27.348 22.9206 27.348 20.6838Z" fill="#4285F4"/>
<path d="M20.4967 27.8417C22.4203 27.8417 24.0462 27.1909 25.2261 26.0725L22.9257 24.2424C22.2812 24.6897 21.4585 24.944 20.4967 24.944C18.6326 24.944 17.056 23.6527 16.4908 21.9243H14.121V23.8154C15.3307 26.2861 17.7997 27.8417 20.4967 27.8417Z" fill="#34A853"/>
<path d="M16.4908 21.9243C16.1933 21.0194 16.1936 20.0331 16.4911 19.118V17.2371H14.121C13.0995 19.3011 13.0995 21.7412 14.121 23.8052L16.4908 21.9243Z" fill="#FBBC04"/>
<path d="M20.4967 16.0983C21.518 16.078 22.4996 16.4745 23.2334 17.1964L25.276 15.1019C23.977 13.8615 22.2716 13.1803 20.4967 13.2006C17.7997 13.2006 15.3306 14.7664 14.121 17.2371L16.4908 19.1282C17.056 17.3896 18.6326 16.0983 20.4967 16.0983Z" fill="#EA4335"/>
</svg>
